<svg width="20" height="20" viewBox="0 0 20 20" fill="none" xmlns="http://www.w3.org/2000/svg">
<g opacity="0.8">
<path d="M7.28135 15.5691C7.2626 15.5691 7.2376 15.5816 7.21885 15.5816C6.00635 14.9816 5.01885 13.9879 4.4126 12.7754C4.4126 12.7566 4.4251 12.7316 4.4251 12.7129C5.1876 12.9379 5.9751 13.1066 6.75635 13.2379C6.89385 14.0254 7.05635 14.8066 7.28135 15.5691Z" fill="white"/>
<path d="M15.5879 12.7816C14.9691 14.0254 13.9379 15.0316 12.6816 15.6379C12.9191 14.8441 13.1191 14.0441 13.2504 13.2379C14.0379 13.1066 14.8129 12.9379 15.5754 12.7129C15.5691 12.7379 15.5879 12.7629 15.5879 12.7816Z" fill="white"/>
<path d="M15.6379 7.31953C14.8504 7.08203 14.0566 6.88828 13.2504 6.75078C13.1191 5.94453 12.9254 5.14453 12.6816 4.36328C13.9754 4.98203 15.0191 6.02578 15.6379 7.31953Z" fill="white"/>
<path d="M7.28105 4.43086C7.05605 5.19336 6.89355 5.96836 6.7623 6.75586C5.95605 6.88086 5.15605 7.08086 4.3623 7.31836C4.96855 6.06211 5.9748 5.03086 7.21855 4.41211C7.2373 4.41211 7.2623 4.43086 7.28105 4.43086Z" fill="white"/>
<path d="M12.1813 6.61875C10.7313 6.45625 9.26885 6.45625 7.81885 6.61875C7.9751 5.7625 8.1751 4.90625 8.45635 4.08125C8.46885 4.03125 8.4626 3.99375 8.46885 3.94375C8.9626 3.825 9.46885 3.75 10.0001 3.75C10.5251 3.75 11.0376 3.825 11.5251 3.94375C11.5313 3.99375 11.5313 4.03125 11.5438 4.08125C11.8251 4.9125 12.0251 5.7625 12.1813 6.61875Z" fill="white"/>
<path d="M6.61875 12.1809C5.75625 12.0246 4.90625 11.8246 4.08125 11.5434C4.03125 11.5309 3.99375 11.5371 3.94375 11.5309C3.825 11.0371 3.75 10.5309 3.75 9.99961C3.75 9.47461 3.825 8.96211 3.94375 8.47461C3.99375 8.46836 4.03125 8.46836 4.08125 8.45586C4.9125 8.18086 5.75625 7.97461 6.61875 7.81836C6.4625 9.26836 6.4625 10.7309 6.61875 12.1809Z" fill="white"/>
<path d="M16.2496 9.99961C16.2496 10.5309 16.1746 11.0371 16.0559 11.5309C16.0059 11.5371 15.9684 11.5309 15.9184 11.5434C15.0871 11.8184 14.2371 12.0246 13.3809 12.1809C13.5434 10.7309 13.5434 9.26836 13.3809 7.81836C14.2371 7.97461 15.0934 8.17461 15.9184 8.45586C15.9684 8.46836 16.0059 8.47461 16.0559 8.47461C16.1746 8.96836 16.2496 9.47461 16.2496 9.99961Z" fill="white"/>
<path d="M12.1813 13.3809C12.0251 14.2434 11.8251 15.0934 11.5438 15.9184C11.5313 15.9684 11.5313 16.0059 11.5251 16.0559C11.0376 16.1746 10.5251 16.2496 10.0001 16.2496C9.46885 16.2496 8.9626 16.1746 8.46885 16.0559C8.4626 16.0059 8.46885 15.9684 8.45635 15.9184C8.18135 15.0871 7.9751 14.2434 7.81885 13.3809C8.54385 13.4621 9.26885 13.5184 10.0001 13.5184C10.7313 13.5184 11.4626 13.4621 12.1813 13.3809Z" fill="white"/>
<path d="M12.3521 12.3521C10.7889 12.5493 9.2111 12.5493 7.64792 12.3521C7.45069 10.7889 7.45069 9.2111 7.64792 7.64792C9.2111 7.45069 10.7889 7.45069 12.3521 7.64792C12.5493 9.2111 12.5493 10.7889 12.3521 12.3521Z" fill="white"/>
</g>
</svg>
