<svg width="20" height="20" viewBox="0 0 20 20" fill="none" xmlns="http://www.w3.org/2000/svg">
<g opacity="0.8">
<path d="M15.446 3H4.554C4.14223 3.00123 3.74768 3.16535 3.45651 3.45651C3.16535 3.74768 3.00123 4.14223 3 4.554V15.446C3.00123 15.8578 3.16535 16.2523 3.45651 16.5435C3.74768 16.8347 4.14223 16.9988 4.554 17H15.446C15.8578 16.9988 16.2523 16.8347 16.5435 16.5435C16.8347 16.2523 16.9988 15.8578 17 15.446V4.554C16.9988 4.14223 16.8347 3.74768 16.5435 3.45651C16.2523 3.16535 15.8578 3.00123 15.446 3ZM7.816 13.8873H5.83266V8.13335H7.816V13.8873ZM6.83134 7.354C6.54985 7.36668 6.27482 7.26717 6.0666 7.07733C5.85838 6.88748 5.73397 6.62279 5.72066 6.34132C5.73517 6.06069 5.8601 5.7972 6.06819 5.60835C6.27627 5.4195 6.55062 5.32064 6.83134 5.33334C7.11206 5.32064 7.3864 5.41951 7.59448 5.60836C7.80257 5.79721 7.9275 6.06071 7.942 6.34134C7.92631 6.62114 7.80086 6.88345 7.59291 7.07131C7.38496 7.25916 7.11129 7.35739 6.83134 7.34466V7.354ZM14.7927 13.8873H12.8V10.7746C12.8 10.1353 12.548 9.49599 11.8013 9.49599C11.6415 9.50203 11.4845 9.54102 11.3404 9.61052C11.1963 9.68002 11.0681 9.77854 10.9638 9.89989C10.8596 10.0212 10.7815 10.1628 10.7345 10.3158C10.6875 10.4687 10.6726 10.6297 10.6907 10.7887V13.8826H8.768V8.13334H10.7047V8.964C10.9048 8.65377 11.182 8.40079 11.5092 8.22983C11.8364 8.05886 12.2024 7.97577 12.5713 7.98866C13.3973 7.98866 14.8067 8.404 14.8067 10.6533L14.7927 13.8873Z" fill="white"/>
</g>
</svg>
