<svg width="20" height="20" viewBox="0 0 20 20" fill="none" xmlns="http://www.w3.org/2000/svg">
<g opacity="0.8">
<path d="M16.371 7.41567C16.371 7.28435 16.3681 7.15453 16.3615 7.02559C17.0031 6.60734 17.5597 6.08379 18 5.48469C17.4021 5.72006 16.7659 5.87234 16.1143 5.93604C16.7925 5.57093 17.3125 4.98701 17.5583 4.28628C16.9233 4.62318 16.2209 4.86404 15.4742 4.98955C14.8758 4.39387 14.0219 4.01446 13.0779 4.00038C11.265 3.97415 9.79534 5.31451 9.79534 6.99377C9.79534 7.23245 9.82387 7.46394 9.8805 7.68746C7.15046 7.53376 4.73126 6.29051 3.11304 4.41629C2.83068 4.86533 2.66866 5.39011 2.66866 5.95251C2.66866 7.01621 3.24822 7.96161 4.12877 8.51949C3.58971 8.49816 3.08472 8.35531 2.6418 8.12111V8.16018C2.6418 9.64684 3.77368 10.8924 5.27556 11.1831C5.00023 11.2516 4.70982 11.2872 4.41115 11.2859C4.20363 11.285 3.99679 11.2652 3.79396 11.2268C4.21127 12.4451 5.42415 13.3352 6.86007 13.3648C5.73626 14.1801 4.3206 14.667 2.78363 14.6636C2.51863 14.6636 2.25675 14.6481 2 14.6199C3.4533 15.492 5.17842 16 7.03291 16C13.0697 16.0013 16.371 11.4042 16.371 7.41567H16.371Z" fill="white"/>
</g>
</svg>
